<svg xmlns="http://www.w3.org/2000/svg" viewBox="0 0 646.61 174.31"><defs><style>.cls-1{fill:#fff;}.cls-2{fill:#8a6ba7;}.cls-3{fill:#0091cf;}.cls-4{fill:#51b15f;}.cls-5{fill:#ea5b13;}.cls-6{fill:#f18755;}.cls-7{fill:#d10e32;}</style></defs><g id="Capa_2" data-name="Capa 2"><g id="Capa_1-2" data-name="Capa 1"><circle class="cls-1" cx="87.16" cy="87.16" r="87.16" transform="translate(-36.1 87.16) rotate(-45)"/><path class="cls-2" d="M82.69,33.31c3.14-.71,4.25-3.61,2.32-6.5.32,2.46-.3,4.22-3,4.14-2.23-.05-3.31-1.55-3.25-3.64a5.38,5.38,0,0,1,7.07-4.69c3.27,1.18,4.59,3.86,4.94,7.07a48.2,48.2,0,0,1,0,5.11c1.13.22,2.19.46,3.24.73a.75.75,0,0,1,.06-.13c2.26-6.08,1-11.83-3.44-15.5-2.93-2.45-6.32-2.72-9.77-1.56s-5.3,4.05-5.87,7.56A6.39,6.39,0,0,0,82.69,33.31Z"/><path class="cls-3" d="M56,84.8s-1.78,6.63-1.78,10a21.83,21.83,0,0,1,5.21-6A16.37,16.37,0,0,1,61.56,84s-7.45-8-7.45-18.35S62.75,42.3,83.35,42.3c8.64,0,13.38,2,27.35,2a39.32,39.32,0,0,0,24.42-8.81c-2.92,2-8.81,4.67-19.57,4.67-17.28,0-19.89-5-33.86-5s-33.86,6.63-33.86,30C47.83,79.12,56,84.8,56,84.8Z"/><path class="cls-2" d="M82.17,45.22a11.2,11.2,0,0,0,4.76-1.58c-1-.07-2.11-.11-3.26-.12A18.22,18.22,0,0,1,79,45.3S92.7,49.48,92.7,56c0,2-1.51,2.9-3,3.28-.17,0-1.87.17-5.4-1h0a20.46,20.46,0,0,0-6-1A12.91,12.91,0,0,0,65,70.18C65,77.91,72.49,81,75.59,81c3.52,0,8.61-2.74,8.61-7.7a5.34,5.34,0,0,0-5.1-5.75H79a4.45,4.45,0,0,0-.53,0A3.51,3.51,0,0,0,75.06,71h0a1.73,1.73,0,0,0,.33,1c.17.27.46.55.7.94h0l0,0a2,2,0,0,1,.18.36h0s0,0,0,0h0c.25.67.18,1.09-.53,1.11a3.64,3.64,0,0,1-1.07-.22,4.47,4.47,0,0,1-3.06-4.5c0-4.48,4.79-6.34,7.36-6.34s9.17,1.86,9.17,10.36c0,8.3-8.1,11.39-13.21,11.39S59.26,81,59.26,68.19C59.26,55,74.83,50.57,79,50.57c7.5,0,11.21,3.09,11.21,3.09a16.15,16.15,0,0,0-3.48-3.8,55.44,55.44,0,0,0-6.72-.5H79c-6,0-21,5.61-21,18.85C58,82,69.45,86.4,75,86.4S89.41,83,89.41,73.79c0-9.5-7.51-11.58-10.4-11.58-3.46,0-8.59,2.4-8.59,7.56a5.57,5.57,0,0,0,5.12,6h.07l.38,0h0a3.51,3.51,0,0,0,3.57-3.34h0a1.78,1.78,0,0,0-.25-.91h0c-.14-.31-.52-.63-.8-1.11a2,2,0,0,1-.18-.36v0c-.27-.7-.22-1.15.54-1.15a2.77,2.77,0,0,1,.64.11A4.42,4.42,0,0,1,83,73.32c0,4.53-4.88,6.49-7.38,6.49-2.65,0-9.33-2.86-9.33-9.63a11.7,11.7,0,0,1,12-11.64A21.06,21.06,0,0,1,86,60.2a21.1,21.1,0,0,1,4.68,3.14l5.11,4.85C103.56,51.69,82.17,45.22,82.17,45.22Z"/><path class="cls-4" d="M36.13,118.58c2-1.48,3.81-1.81,5.06.54,1.06,2,.29,3.65-1.56,4.63a5.38,5.38,0,0,1-7.57-3.83c-.59-3.43,1.09-5.9,3.71-7.79a47.12,47.12,0,0,1,4.43-2.56c-.37-1.09-.69-2.13-1-3.17h-.15c-6.4,1-10.75,5-11.77,10.64-.69,3.76.76,6.84,3.46,9.27s6.14,2.61,9.47,1.36a6.38,6.38,0,0,0,2.68-10.28C40.75,115,37.68,115.48,36.13,118.58Z"/><path class="cls-5" d="M102.58,110.28a16.13,16.13,0,0,1-5.17.48s-3.32,10.46-12.28,15.55-24.55,4-34.72-13.92c-4.26-7.52-4.85-12.63-11.75-24.78A39.39,39.39,0,0,0,19,70.71c3.19,1.55,8.41,5.37,13.72,14.72,8.53,15,5.49,19.75,12.38,31.9S67.53,143.51,87.82,132c12.15-6.9,13.06-16.81,13.06-16.81s6.64-1.72,9.52-3.36A21.84,21.84,0,0,1,102.58,110.28Z"/><path class="cls-4" d="M55.31,105.7a54.65,54.65,0,0,0,2.89,6.09c0,.07.07.14.1.2l.38.69c3,5.2,15.23,15.48,26.75,8.95,12-6.8,10.2-18.92,7.47-23.73S82.8,87,74.81,91.57c-8.26,4.69-6.37,12.25-4.94,14.76,1.71,3,6.33,6.28,10.81,3.74a5.57,5.57,0,0,0,2.67-7.4l0-.07c-.06-.11-.13-.21-.2-.32h0a3.52,3.52,0,0,0-4.66-1.46h0a1.7,1.7,0,0,0-.67.66h0c-.21.28-.29.76-.58,1.25a2.1,2.1,0,0,1-.22.33,0,0,0,0,1,0,0c-.48.58-.89.76-1.27.1a2.29,2.29,0,0,1-.22-.62,4.41,4.41,0,0,1,2.1-5.17c3.94-2.24,8.06,1,9.29,3.22s2.11,9.53-3.77,12.87a11.7,11.7,0,0,1-16-4.69,21,21,0,0,1-2.39-7.58,21.2,21.2,0,0,1,.42-5.62l1.7-6.84C48.61,90.17,53.54,112,53.54,112a11.34,11.34,0,0,0-3.73-3.36c.45.94.95,1.89,1.51,2.9a18.09,18.09,0,0,1,3.84,3.17s-3.11-14,2.55-17.19c1.76-1,3.27-.11,4.34,1a14,14,0,0,1,1.79,5.18h0A20.53,20.53,0,0,0,66,109.4a12.9,12.9,0,0,0,17.71,5.15c6.72-3.82,5.76-11.84,4.23-14.54C86.19,97,81.29,93.89,77,96.33a5.32,5.32,0,0,0-2.49,7.27l0,.08a3.88,3.88,0,0,0,.29.45,3.52,3.52,0,0,0,4.59,1.33h0a1.8,1.8,0,0,0,.74-.81c.14-.27.25-.66.47-1.06h0s0,0,0,0a2.7,2.7,0,0,1,.22-.33l0,0,0,0h0c.46-.54.86-.69,1.22-.08a3.35,3.35,0,0,1,.34,1,4.48,4.48,0,0,1-2.4,4.89c-3.9,2.2-7.88-1.05-9.14-3.28S68,96.83,75.42,92.64c7.21-4.1,13.9,1.42,16.42,5.87s4.15,15.72-7,22c-11.49,6.52-23-4.84-25.07-8.48-3.71-6.53-2.84-11.28-2.84-11.28A16.34,16.34,0,0,0,55.31,105.7Z"/><path class="cls-6" d="M146.15,106.72a6.39,6.39,0,0,0-10.25,2.84c-1,3.07,1,5.5,4.44,5.29-2.28-1-3.48-2.39-2.08-4.66,1.18-1.9,3-2.07,4.79-1a5.39,5.39,0,0,1,.49,8.47c-2.67,2.23-5.66,2-8.61.71a50.41,50.41,0,0,1-4.43-2.56c-.75.87-1.5,1.67-2.26,2.44a.62.62,0,0,1,.09.12c4.11,5,9.73,6.78,15.11,4.85,3.59-1.3,5.53-4.1,6.28-7.66S148.89,109,146.15,106.72Z"/><path class="cls-7" d="M126,63.4c-12.06-7-21.09-2.86-21.09-2.86s-4.83-4.88-7.69-6.55a21.83,21.83,0,0,1,2.58,7.54,16.42,16.42,0,0,1,3,4.23s10.71-2.38,19.61,2.82,15.77,19.23,5.38,37c-4.36,7.46-8.49,10.53-15.54,22.6a39.35,39.35,0,0,0-4.71,25.53c-.26-3.54.42-10,5.84-19.25,8.72-14.93,14.33-14.67,21.38-26.73S146.14,75.17,126,63.4Z"/><path class="cls-6" d="M114.53,105.79a16.34,16.34,0,0,0,5-1.07,55,55,0,0,0,3.82-5.56l.12-.19.41-.67c3-5.16,5.74-20.94-5.69-27.62-11.88-7-21.49.66-24.27,5.44s-4.33,14.19,3.6,18.82c8.2,4.79,13.79-.64,15.25-3.14,1.74-3,2.26-8.62-2.2-11.22a5.58,5.58,0,0,0-7.74,1.4l0,.06-.18.34h0a3.51,3.51,0,0,0,1.08,4.77h0a1.76,1.76,0,0,0,.91.25h0c.34,0,.81-.13,1.37-.13a2.56,2.56,0,0,1,.39,0h0c.75.13,1.1.4.72,1.06a2.18,2.18,0,0,1-.42.49,4.4,4.4,0,0,1-5.52.78c-3.92-2.28-3.14-7.49-1.89-9.64,1.34-2.3,7.19-6.62,13-3.2a11.7,11.7,0,0,1,4,16.23A20.87,20.87,0,0,1,111,98.88a21.12,21.12,0,0,1-5.07,2.46l-6.77,2c10.34,15,26.72-.2,26.72-.2a11.32,11.32,0,0,0-1,4.91c.59-.86,1.17-1.76,1.75-2.75a18.36,18.36,0,0,1,.82-4.92s-10.52,9.71-16.14,6.42c-1.75-1-1.74-2.77-1.3-4.26.07-.16.79-1.7,3.58-4.15h0a21,21,0,0,0,3.86-4.72A12.91,12.91,0,0,0,113,75.72c-6.67-3.9-13.13,1-14.69,3.64-1.78,3-2,8.81,2.3,11.31a5.34,5.34,0,0,0,7.54-1.49l0-.08a4.29,4.29,0,0,0,.24-.48A3.51,3.51,0,0,0,107.26,84h0a1.75,1.75,0,0,0-1.06-.24c-.31,0-.7.12-1.15.13H105a1.84,1.84,0,0,1-.4,0h-.07c-.7-.12-1-.39-.69-1a3.75,3.75,0,0,1,.73-.81,4.49,4.49,0,0,1,5.44-.37c3.86,2.26,3,7.33,1.75,9.55s-6.23,7-13.57,2.69C91,89.7,92.44,81.14,95,76.73s11.52-11.47,22.6-5c11.41,6.67,7.36,22.34,5.25,26C119.07,104.16,114.53,105.79,114.53,105.79Z"/><circle class="cls-5" cx="87.35" cy="87.01" r="2.49"/><path class="cls-1" d="M268.28,66.12c0,.65-.7,1.25-2.09,1.82-1,.4-1.93.79-2.91,1.18a15.21,15.21,0,0,0-3.33,4q-3.27,4.8-6.57,9.56-3.88,5.75-6.12,9.84c-.06.65-.17,2.22-.32,4.71q-.15,2.45-.15,4.47a8.72,8.72,0,0,0,.12,1.77c.23,1,1.33,1.65,3.29,2.06l5.27.94c1.83.52,2.74,1.39,2.74,2.63,0,.35-.3.65-.91.91a3.48,3.48,0,0,1-1.36.32c-.64,0-1.52,0-2.62-.15-1.29-.11-2.16-.18-2.59-.2q-11.56-.54-18-.53-5.21,0-10.74.43-5.9.45-6.45.45c-1.41,0-2.12-.66-2.12-2,0-1,.93-1.67,2.8-2l5.24-.82c1.86-.49,2.79-1.43,2.79-2.8,0-.75,0-1.89,0-3.43s0-2.68,0-3.43c0-1.58,0-2.69-.06-3.32q0-.5-4.62-9.42c-2.91-5.68-4.73-9.15-5.45-10.38-1.1-1.91-2.25-3-3.45-3.39-1.23-.21-2.46-.44-3.68-.67-1.55-.4-2.32-1.18-2.32-2.36,0-.37.26-.74.78-1.1a2.51,2.51,0,0,1,1.34-.55q2,0,5.93.24t5.93.24q2.14,0,6.44-.05c2.85,0,5,0,6.43,0,1.1,0,2.74-.06,4.93-.19s3.83-.19,4.93-.19c1.87,0,2.8.59,2.8,1.75q0,1.5-3.77,2.38c-1,.24-1.5.48-1.5.71a12.79,12.79,0,0,0,.68,1.65Q244.88,83.4,246,83.4c1.38,0,2.79-1.83,4.24-5.51a22,22,0,0,0,2-7.44c0-1.22-.94-1.93-2.82-2.12s-2.81-.79-2.81-1.77c0-1.2,1-1.8,3-1.8.74,0,1.86,0,3.34.12s2.59.12,3.34.12c2.33,0,4.26,0,5.77-.12l3.89-.21C267.49,64.67,268.28,65.16,268.28,66.12Z"/><path class="cls-1" d="M328,107.75c0,1.57-.83,2.36-2.5,2.36-2,0-5-.13-8.89-.37s-6.91-.37-8.9-.37-5.26.08-9.48.25-7.38.25-9.48.25-3.09-.49-3.09-1.47.65-1.4,1.94-1.71l3.6-.71c1.29-.37,1.95-1.07,2-2.09q0-2.94-3.62-3.8a31.87,31.87,0,0,0-6.39-.38h-5.95c-1.86,0-2.8,1.19-2.8,3.5a20,20,0,0,0,.25,2.51,18.53,18.53,0,0,1,.25,2.52c0,1-.8,1.42-2.41,1.42q-1.44,0-6.42-2.88c-3.41-2-5.12-3.35-5.12-4.09q0-1.92,1.71-1.92a4.33,4.33,0,0,1,2.15.59,11.41,11.41,0,0,1,1.53,1.15,2.38,2.38,0,0,0,1.06.62c1.29,0,2.49-1.38,3.59-4.12a119.65,119.65,0,0,1,10.54-19.29,104.14,104.14,0,0,1,7.21-9.21q6.18-7.28,7.66-7.28,1.85,0,7.18,7.33a82.49,82.49,0,0,1,6.21,9.51,135.4,135.4,0,0,1,5.75,13.28q1,3.21,2,6.45,1.47,4.59,2.79,5.54a18.94,18.94,0,0,0,4.39.7Q328,106.4,328,107.75Zm-39.78-16q-3.76-5.62-4.94-5.62t-3.45,3.91c-1.51,2.54-2.27,4.24-2.27,5.13,0,.59,1.19.91,3.57,1q2.14-.06,4.32-.09l1.45.12a13,13,0,0,0,2.18,0c.72-.1,1.08-.3,1.06-.62A10.46,10.46,0,0,0,288.19,91.76Z"/><path class="cls-1" d="M387.8,65.91c0,1.2-.82,2-2.45,2.33l-4.53.62c-1.63.31-2.45,1-2.45,2.06,0,.72.06,1.77.18,3.13s.18,2.41.18,3.14q0,6.54-.92,30.59a4.23,4.23,0,0,1-.82,2.27,2.36,2.36,0,0,1-1.94,1.2q-2.19,0-15.42-10.58T346,90.08c-.49,0-.74.46-.74,1.36a18.43,18.43,0,0,0,1.59,7.36,11.44,11.44,0,0,0,4.65,5.74l4.15,1.24c1.93.57,2.89,1.25,2.89,2.06a1.53,1.53,0,0,1-.72,1.22,2.36,2.36,0,0,1-1.4.54c-1.31,0-3.28,0-5.89-.08s-4.57-.09-5.89-.09-3.09.06-5.58.19-4.34.19-5.58.19c-1.57,0-2.35-.44-2.35-1.32,0-1.12,1.05-1.9,3.15-2.33,2.88-.57,4.38-.88,4.47-.94.75-.43,1.25-1.47,1.51-3.12a97.13,97.13,0,0,0,.85-13.87,91.67,91.67,0,0,0-1.27-16.14,3.58,3.58,0,0,0-1.19-1.78,3.33,3.33,0,0,0-1.84-1h-4.86a4.8,4.8,0,0,1-1.79-.38c-.79-.31-1.18-.7-1.18-1.17Q329,65,333.15,65l9.35,0c4.15,0,7.27,0,9.35,0a5.83,5.83,0,0,1,1.23.12q1.89.41,10.48,7.51t8.72,7c.51,0,.77-.45.77-1.35a8.69,8.69,0,0,0-1.77-4.8,13.18,13.18,0,0,0-3.65-3.71,7.35,7.35,0,0,0-2.56-.91,13.83,13.83,0,0,1-2.59-.65,1.71,1.71,0,0,1-1.15-1.68c0-.94.72-1.4,2.18-1.38l7.62.06c1.94,0,4.48-.13,7.6-.39l7.62-.64a1.15,1.15,0,0,1,1,.6A2.23,2.23,0,0,1,387.8,65.91Z"/><path class="cls-1" d="M451.33,107.75c0,1.57-.83,2.36-2.5,2.36-2,0-4.95-.13-8.89-.37s-6.91-.37-8.9-.37-5.26.08-9.48.25-7.38.25-9.48.25-3.09-.49-3.09-1.47.65-1.4,1.94-1.71l3.6-.71c1.29-.37,2-1.07,2-2.09q0-2.94-3.62-3.8a31.87,31.87,0,0,0-6.39-.38h-5.95c-1.86,0-2.8,1.19-2.8,3.5a20,20,0,0,0,.25,2.51,18.53,18.53,0,0,1,.25,2.52c0,1-.8,1.42-2.41,1.42q-1.44,0-6.42-2.88c-3.41-2-5.12-3.35-5.12-4.09q0-1.92,1.71-1.92a4.33,4.33,0,0,1,2.15.59,11.41,11.41,0,0,1,1.53,1.15,2.38,2.38,0,0,0,1.06.62c1.29,0,2.49-1.38,3.59-4.12a119.65,119.65,0,0,1,10.54-19.29,104.14,104.14,0,0,1,7.21-9.21q6.18-7.28,7.66-7.28,1.85,0,7.18,7.33a82.49,82.49,0,0,1,6.21,9.51,135.4,135.4,0,0,1,5.75,13.28q1,3.21,2,6.45,1.47,4.59,2.79,5.54a18.94,18.94,0,0,0,4.39.7Q451.33,106.4,451.33,107.75Zm-39.78-16q-3.76-5.62-4.94-5.62t-3.45,3.91c-1.51,2.54-2.27,4.24-2.27,5.13,0,.59,1.19.91,3.57,1q2.15-.06,4.32-.09l1.45.12a13,13,0,0,0,2.18,0c.72-.1,1.08-.3,1.06-.62A10.46,10.46,0,0,0,411.55,91.76Z"/><path class="cls-1" d="M497.89,93.32q-.12,7.34-6.45,12.52A20.26,20.26,0,0,1,478,110.63a47.91,47.91,0,0,1-11.22-1.85,26.49,26.49,0,0,0-3.33-1.21,1.62,1.62,0,0,0-1.1.31,1.29,1.29,0,0,0-.31,1.05c.06,1.9.12,2.65.18,2.24-.12.9-.86,1.34-2.21,1.32-.61,0-1.16-.72-1.65-2.09q-5.1-14.52-5.07-15.4,0-1.71,1.65-1.71c.55,0,1.46.8,2.74,2.39q1.53,2.2,3.39,4.77,4.88,5.24,15.07,5.42a28,28,0,0,0,5.33-.39c2.59-.43,3.9-1.11,3.92-2q0-1.68-5.69-3.3a43.26,43.26,0,0,0-6.53-1.35q-8.28-.83-13.27-5.7a15.71,15.71,0,0,1-4.87-12q.3-17.46,25.85-17c2.42.47,5.79,1,10.13,1.47,1.16,0,2-.74,2.59-2.27a2.39,2.39,0,0,1,2.56-1.5,2.71,2.71,0,0,1,1.24.41c.49.28.75.59.77.94a9.31,9.31,0,0,1-.59,2.45q-.24.67-3,7.92a27.29,27.29,0,0,0-1.88,6.21,6.3,6.3,0,0,0,1.35,2.91A34.48,34.48,0,0,1,496.6,87,15,15,0,0,1,497.89,93.32ZM487.76,77.37l0-1.39q.06-3-5.56-5.36a21,21,0,0,0-7-1.85,22.83,22.83,0,0,0-4.68.47c-2.3.45-3.46,1.08-3.48,1.88,0,.63.67,1.21,2.06,1.74a11.49,11.49,0,0,0,2.62.71c1.51.27,4.46,1,8.84,2.26q6.18,1.77,6.27,1.77A5.53,5.53,0,0,1,487.76,77.37Z"/><path class="cls-1" d="M578,65a2.4,2.4,0,0,1-1.71,2.59c-1.12.28-2.24.54-3.36.8a5.67,5.67,0,0,0-3.38,2.17,12.16,12.16,0,0,0-1.12,4,58.39,58.39,0,0,0-.27,7.24q0,11.46-5.59,19.58-6.33,9.23-17.25,9.22-12.69,0-20.5-5.68-8.71-6.33-9.3-18.64c0-.83-.06-1.67-.06-2.53,0-1.26.08-3.13.24-5.63s.23-4.36.23-5.59a2.94,2.94,0,0,0-2.32-3,30.46,30.46,0,0,0-4.71-.64,11.81,11.81,0,0,1-3.45-.68,2,2,0,0,1-.88-1.94q0-1.65,2.88-1.65,3,0,9.14.2c4.08.14,7.13.21,9.18.21H533c3,0,5.4,0,7.3,0,.73,0,1.76,0,3.09-.07s2.45-.11,3.06-.11c1.73,0,2.59.46,2.59,1.39a2.22,2.22,0,0,1-1.47,2,6.31,6.31,0,0,1-2.59.59q-4.28.06-4.27,3.09c0,1.24.08,3.09.25,5.55s.25,4.31.25,5.55c0,.8,0,2,.08,3.65s.07,2.85.07,3.65A13.14,13.14,0,0,0,543.77,98q2.64,3.83,6.62,3.82,5.54,0,8.77-5.62a20.88,20.88,0,0,0,2.74-10.72,40.88,40.88,0,0,0-1.06-9.33c-1-4.34-2.53-6.68-4.53-7l-3.24-.35c-1.43-.26-2.15-.82-2.15-1.68,0-1.53.92-2.3,2.77-2.3l11.71.09a54,54,0,0,0,5.53-.4q3.63-.39,5.46-.39A2.47,2.47,0,0,1,578,65Z"/><path class="cls-1" d="M646.61,66.12c0,.65-.69,1.25-2.09,1.82-1,.4-1.93.79-2.91,1.18a15.21,15.21,0,0,0-3.33,4q-3.27,4.8-6.56,9.56-3.9,5.75-6.13,9.84c-.06.65-.17,2.22-.32,4.71q-.15,2.45-.15,4.47a8.72,8.72,0,0,0,.12,1.77c.23,1,1.33,1.65,3.3,2.06l5.27.94c1.82.52,2.73,1.39,2.73,2.63,0,.35-.3.65-.91.91a3.47,3.47,0,0,1-1.35.32c-.65,0-1.52,0-2.62-.15-1.3-.11-2.16-.18-2.6-.2q-11.56-.54-18-.53-5.22,0-10.75.43-5.89.45-6.45.45c-1.41,0-2.12-.66-2.12-2,0-1,.93-1.67,2.8-2l5.24-.82c1.86-.49,2.8-1.43,2.8-2.8,0-.75,0-1.89-.05-3.43s0-2.68,0-3.43c0-1.58,0-2.69-.06-3.32q0-.5-4.62-9.42c-2.91-5.68-4.72-9.15-5.45-10.38-1.1-1.91-2.25-3-3.44-3.39-1.24-.21-2.47-.44-3.68-.67-1.56-.4-2.33-1.18-2.33-2.36,0-.37.26-.74.78-1.1a2.54,2.54,0,0,1,1.34-.55q2,0,5.93.24t5.93.24c1.44,0,3.58,0,6.44-.05s5,0,6.43,0c1.1,0,2.74-.06,4.93-.19s3.84-.19,4.93-.19c1.87,0,2.8.59,2.8,1.75q0,1.5-3.77,2.38c-1,.24-1.5.48-1.5.71a14.85,14.85,0,0,0,.68,1.65q5.38,12.24,6.5,12.24c1.38,0,2.79-1.83,4.24-5.51a22,22,0,0,0,2-7.44c0-1.22-.94-1.93-2.81-2.12s-2.82-.79-2.82-1.77c0-1.2,1-1.8,3-1.8.74,0,1.86,0,3.34.12s2.59.12,3.34.12c2.34,0,4.26,0,5.77-.12l3.89-.21C645.82,64.67,646.61,65.16,646.61,66.12Z"/><path class="cls-1" d="M238.57,130.76a.47.47,0,0,1,.2.3.53.53,0,0,1-.09.33.37.37,0,0,1-.27.17.63.63,0,0,1-.32-.08,8.07,8.07,0,0,0-2-1,6.87,6.87,0,0,0-2.29-.37,6.59,6.59,0,0,0-2.6.51,6.41,6.41,0,0,0-2.12,1.45,6.76,6.76,0,0,0-1.44,2.22,7.93,7.93,0,0,0,0,5.65,6.76,6.76,0,0,0,1.44,2.22,6.47,6.47,0,0,0,4.72,2,7.08,7.08,0,0,0,2.28-.37,9.13,9.13,0,0,0,2-1,.49.49,0,0,1,.33-.09.4.4,0,0,1,.28.18.48.48,0,0,1,.09.32.38.38,0,0,1-.18.28,6.81,6.81,0,0,1-1.31.72,9.85,9.85,0,0,1-1.69.56,8.3,8.3,0,0,1-1.78.2,7.45,7.45,0,0,1-2.94-.58,7.68,7.68,0,0,1-4.05-4.13,8.41,8.41,0,0,1,0-6.24,7.61,7.61,0,0,1,1.64-2.48,7.45,7.45,0,0,1,5.35-2.23,8.2,8.2,0,0,1,4.76,1.48Z"/><path class="cls-1" d="M250.56,130.61l-5.51,13.83a.36.36,0,0,1-.15.21.41.41,0,0,1-.24.08.44.44,0,0,1-.32-.11.41.41,0,0,1-.13-.26.35.35,0,0,1,0-.22l5.85-14.4a.42.42,0,0,1,.16-.23.49.49,0,0,1,.25,0,.52.52,0,0,1,.29.07.41.41,0,0,1,.15.21l5.85,14.4a.72.72,0,0,1,0,.17.39.39,0,0,1-.13.31.52.52,0,0,1-.33.11.5.5,0,0,1-.27-.08.37.37,0,0,1-.16-.21l-5.68-14Zm-4,9.4.31-.87h7l.21.87Z"/><path class="cls-1" d="M269.94,129.5a3.82,3.82,0,0,1,2.78,1,3.56,3.56,0,0,1,1,2.7,4.36,4.36,0,0,1-.36,1.73,3.37,3.37,0,0,1-1.06,1.38,3.16,3.16,0,0,1-1.72.63l-.15-.26a4.82,4.82,0,0,1,1.59.25,3.49,3.49,0,0,1,1.28.75,3.41,3.41,0,0,1,.86,1.23,4.24,4.24,0,0,1,.32,1.71,4.39,4.39,0,0,1-.35,1.81,3.43,3.43,0,0,1-1,1.28,3.86,3.86,0,0,1-1.41.77,6,6,0,0,1-1.72.25h-6a.44.44,0,0,1-.44-.44V129.94a.46.46,0,0,1,.13-.31.42.42,0,0,1,.31-.13Zm-.11.87h-5.5l.24-.41v6.89l-.22-.37h5.48a3,3,0,0,0,2.15-.85,3.23,3.23,0,0,0,.87-2.45,2.76,2.76,0,0,0-.78-2A3.07,3.07,0,0,0,269.83,130.37Zm.15,7h-5.5l.09-.13V144l-.11-.17H270a4.22,4.22,0,0,0,2.59-.78,2.83,2.83,0,0,0,1-2.46,3.32,3.32,0,0,0-.47-1.85,2.86,2.86,0,0,0-1.31-1.06A5,5,0,0,0,270,137.37Z"/><path class="cls-1" d="M286.64,130.61l-5.5,13.83a.41.41,0,0,1-.39.29.45.45,0,0,1-.33-.11.53.53,0,0,1-.13-.26.44.44,0,0,1,0-.22l5.85-14.4a.43.43,0,0,1,.17-.23.47.47,0,0,1,.25,0,.49.49,0,0,1,.28.07.41.41,0,0,1,.15.21l5.85,14.4a.4.4,0,0,1,0,.17.42.42,0,0,1-.13.31.52.52,0,0,1-.33.11.5.5,0,0,1-.27-.08.39.39,0,0,1-.17-.21l-5.67-14Zm-4,9.4.3-.87H290l.22.87Z"/><path class="cls-1" d="M310.74,129.5a.4.4,0,0,1,.31.12.44.44,0,0,1,.11.29v14.34a.46.46,0,0,1-.14.36.49.49,0,0,1-.32.12.41.41,0,0,1-.18,0,.43.43,0,0,1-.17-.13l-10.09-13.79.3-.15v13.75a.35.35,0,0,1-.12.26.42.42,0,0,1-.29.11.41.41,0,0,1-.3-.11.34.34,0,0,1-.11-.26V129.94a.39.39,0,0,1,.13-.34.41.41,0,0,1,.26-.1.51.51,0,0,1,.17,0,.36.36,0,0,1,.16.12l10,13.71-.17.43V129.91a.37.37,0,0,1,.13-.29A.41.41,0,0,1,310.74,129.5Zm-8-1.78a.28.28,0,0,1-.29-.2,1.25,1.25,0,0,1,0-.57,1.73,1.73,0,0,1,.7-1,2,2,0,0,1,1-.3,1.9,1.9,0,0,1,1,.31l1,.62a1.73,1.73,0,0,0,.87.31.65.65,0,0,0,.54-.27,1.51,1.51,0,0,0,.27-.71.43.43,0,0,1,.12-.28.31.31,0,0,1,.27-.11.3.3,0,0,1,.32.2,1.41,1.41,0,0,1,0,.54,2.12,2.12,0,0,1-.36.83,1.48,1.48,0,0,1-.59.45,2,2,0,0,1-.73.13,1.84,1.84,0,0,1-.92-.3l-1-.6a1.74,1.74,0,0,0-.86-.3.85.85,0,0,0-.58.23,1.62,1.62,0,0,0-.4.73.4.4,0,0,1-.17.23A.42.42,0,0,1,302.7,127.72Z"/><path class="cls-1" d="M324.36,130.61l-5.5,13.83a.37.37,0,0,1-.16.21.4.4,0,0,1-.23.08.45.45,0,0,1-.33-.11.46.46,0,0,1-.13-.26.35.35,0,0,1,0-.22l5.85-14.4a.36.36,0,0,1,.41-.28.52.52,0,0,1,.29.07.41.41,0,0,1,.15.21l5.85,14.4a.42.42,0,0,1,0,.17.39.39,0,0,1-.13.31.48.48,0,0,1-.32.11.51.51,0,0,1-.28-.08.37.37,0,0,1-.16-.21l-5.68-14Zm-4,9.4.3-.87h7.05l.22.87Z"/><path class="cls-1" d="M341.44,144.94a6.4,6.4,0,0,1-2.92-.56,8.72,8.72,0,0,1-2.35-1.72.62.62,0,0,1-.09-.12.41.41,0,0,1,0-.21.49.49,0,0,1,.15-.33.45.45,0,0,1,.33-.17.51.51,0,0,1,.37.2,5.86,5.86,0,0,0,4.46,2,5.14,5.14,0,0,0,2-.36,3.17,3.17,0,0,0,1.37-1,2.52,2.52,0,0,0,.5-1.55,2.76,2.76,0,0,0-.61-1.79,4.56,4.56,0,0,0-1.51-1.11c-.62-.29-1.27-.55-1.95-.8s-1.07-.41-1.59-.63a6.45,6.45,0,0,1-1.41-.8,3.32,3.32,0,0,1-1-1.17,3.71,3.71,0,0,1-.37-1.75,3.44,3.44,0,0,1,.57-1.93,4.05,4.05,0,0,1,1.66-1.37,5.92,5.92,0,0,1,2.55-.51,6.7,6.7,0,0,1,2.42.45,4.06,4.06,0,0,1,1.85,1.34.94.94,0,0,1,.21.45.43.43,0,0,1-.16.31.53.53,0,0,1-.36.15.34.34,0,0,1-.28-.13,3.88,3.88,0,0,0-1-.9,4.24,4.24,0,0,0-1.25-.59,5,5,0,0,0-1.48-.21,5.18,5.18,0,0,0-1.93.35,3.27,3.27,0,0,0-1.39,1,2.61,2.61,0,0,0,0,3.22,4.58,4.58,0,0,0,1.47,1.07c.59.28,1.2.54,1.83.77s1.09.39,1.64.62a6.88,6.88,0,0,1,1.48.83,3.71,3.71,0,0,1,1.05,1.27,4.13,4.13,0,0,1,.39,1.91,3.26,3.26,0,0,1-.57,1.85,4.3,4.3,0,0,1-1.62,1.37A5.66,5.66,0,0,1,341.44,144.94Z"/><path class="cls-1" d="M362.66,138.31a.37.37,0,0,1-.29-.13.48.48,0,0,1-.12-.33.41.41,0,0,1,.41-.41h5a.37.37,0,0,1,.29.13.48.48,0,0,1,.12.33.41.41,0,0,1-.41.41Z"/><path class="cls-1" d="M385.68,129.5a.52.52,0,0,1,.21,0,.43.43,0,0,1,.2.16l6.24,9.28h-.43l6.24-9.28a.4.4,0,0,1,.41-.2.43.43,0,0,1,.4.44v14.35a.4.4,0,0,1-.15.31.48.48,0,0,1-.31.13.49.49,0,0,1-.33-.13.42.42,0,0,1-.13-.31V130.91h.24l-5.85,8.86a.37.37,0,0,1-.12.13.36.36,0,0,1-.19,0,.45.45,0,0,1-.2,0,.3.3,0,0,1-.14-.13l-6-9h.34v13.55a.42.42,0,0,1-.13.31.43.43,0,0,1-.3.13.43.43,0,0,1-.44-.44V129.94a.5.5,0,0,1,.11-.3A.38.38,0,0,1,385.68,129.5Z"/><path class="cls-1" d="M407.65,129.5h8.2a.41.41,0,0,1,.3.13.42.42,0,0,1,.13.31.39.39,0,0,1-.13.31.44.44,0,0,1-.3.12h-7.94l.21-.37v6.74l-.26-.3h7a.44.44,0,0,1,.3.75.44.44,0,0,1-.3.12h-7l.21-.24V144l-.08-.1h7.81a.41.41,0,0,1,.3.13.39.39,0,0,1,.13.3.41.41,0,0,1-.13.32.44.44,0,0,1-.3.12h-8.2a.46.46,0,0,1-.31-.13.42.42,0,0,1-.13-.31V129.94a.44.44,0,0,1,.44-.44Z"/><path class="cls-1" d="M423.92,144.73a.46.46,0,0,1-.34-.13.45.45,0,0,1-.12-.31V129.94a.42.42,0,0,1,.13-.31.41.41,0,0,1,.3-.13h5.75a4.78,4.78,0,0,1,2.25.51,3.74,3.74,0,0,1,2.05,3.43,4.35,4.35,0,0,1-.36,1.8,3.55,3.55,0,0,1-1,1.34,3.87,3.87,0,0,1-1.46.77l-1-.17a3.38,3.38,0,0,1,1.66.44,3.5,3.5,0,0,1,1.28,1.31,4.13,4.13,0,0,1,.5,2.1,9.46,9.46,0,0,0,.1,1.62,2.19,2.19,0,0,0,.26.81,1.42,1.42,0,0,0,.38.42.6.6,0,0,1,.2.22.43.43,0,0,1,0,.3.46.46,0,0,1-.14.21.48.48,0,0,1-.21.09.36.36,0,0,1-.24,0,2.53,2.53,0,0,1-.6-.52,2.89,2.89,0,0,1-.49-1.07,8.27,8.27,0,0,1-.19-2,3.55,3.55,0,0,0-.32-1.63,2.49,2.49,0,0,0-.8-.94,2.82,2.82,0,0,0-1-.43,4.71,4.71,0,0,0-1-.11h-5.28l.19-.26v6.63a.42.42,0,0,1-.13.31A.46.46,0,0,1,423.92,144.73Zm.23-7.68h5.6a3.92,3.92,0,0,0,1.6-.52,3.37,3.37,0,0,0,1.21-1.22,3.56,3.56,0,0,0,.47-1.85,2.9,2.9,0,0,0-.95-2.21,3.58,3.58,0,0,0-2.55-.88h-5.27l.11-.15v7.07Z"/><path class="cls-1" d="M450.23,143.86a.42.42,0,0,1,.31.13.39.39,0,0,1,.13.3.41.41,0,0,1-.13.32.45.45,0,0,1-.31.12h-8a.42.42,0,0,1-.31-.13.45.45,0,0,1-.12-.31V129.94a.42.42,0,0,1,.13-.31.41.41,0,0,1,.32-.13.44.44,0,0,1,.33.13.42.42,0,0,1,.13.31v14.31l-.39-.39Z"/><path class="cls-1" d="M470.31,137.11a9.22,9.22,0,0,1-.53,3.18,7.41,7.41,0,0,1-1.51,2.48,6.92,6.92,0,0,1-2.31,1.61,7.87,7.87,0,0,1-5.83,0,6.88,6.88,0,0,1-2.3-1.61,7.27,7.27,0,0,1-1.52-2.48,9.22,9.22,0,0,1-.53-3.18,9.13,9.13,0,0,1,.53-3.17,7.18,7.18,0,0,1,1.52-2.48,6.74,6.74,0,0,1,2.3-1.61,7.74,7.74,0,0,1,5.83,0,6.78,6.78,0,0,1,2.31,1.61,7.31,7.31,0,0,1,1.51,2.48A9.13,9.13,0,0,1,470.31,137.11Zm-.91,0a7.71,7.71,0,0,0-.82-3.65,6,6,0,0,0-2.24-2.44,6.66,6.66,0,0,0-6.58,0,6,6,0,0,0-2.25,2.44,8.56,8.56,0,0,0,0,7.31,6,6,0,0,0,2.25,2.43,6.66,6.66,0,0,0,6.58,0,6.05,6.05,0,0,0,2.24-2.43A7.75,7.75,0,0,0,469.4,137.11Z"/><path class="cls-1" d="M486.82,138.31a.36.36,0,0,1-.29-.13.48.48,0,0,1-.12-.33.4.4,0,0,1,.12-.29.38.38,0,0,1,.29-.12h5a.38.38,0,0,1,.3.13.48.48,0,0,1,.12.33.4.4,0,0,1-.12.29.41.41,0,0,1-.3.12Z"/><path class="cls-1" d="M513.4,144.94a6.39,6.39,0,0,1-2.91-.56,8.57,8.57,0,0,1-2.35-1.72.62.62,0,0,1-.09-.12.41.41,0,0,1,0-.21.49.49,0,0,1,.15-.33.45.45,0,0,1,.32-.17.5.5,0,0,1,.37.2,5.9,5.9,0,0,0,4.46,2,5.14,5.14,0,0,0,2-.36,3.12,3.12,0,0,0,1.37-1,2.46,2.46,0,0,0,.5-1.55,2.65,2.65,0,0,0-.61-1.79,4.46,4.46,0,0,0-1.51-1.11c-.61-.29-1.26-.55-1.94-.8s-1.07-.41-1.59-.63a6.52,6.52,0,0,1-1.42-.8,3.43,3.43,0,0,1-1-1.17,3.84,3.84,0,0,1-.37-1.75,3.45,3.45,0,0,1,.58-1.93,4,4,0,0,1,1.65-1.37,5.93,5.93,0,0,1,2.56-.51,6.65,6.65,0,0,1,2.41.45,4,4,0,0,1,1.85,1.34.89.89,0,0,1,.22.45.43.43,0,0,1-.16.31.53.53,0,0,1-.36.15.36.36,0,0,1-.29-.13,3.83,3.83,0,0,0-.94-.9,4.36,4.36,0,0,0-1.25-.59,5.14,5.14,0,0,0-1.48-.21,5.23,5.23,0,0,0-1.94.35,3.33,3.33,0,0,0-1.39,1,2.41,2.41,0,0,0-.52,1.58,2.35,2.35,0,0,0,.58,1.64,4.65,4.65,0,0,0,1.46,1.07c.6.28,1.21.54,1.83.77s1.1.39,1.64.62a6.44,6.44,0,0,1,1.48.83,3.74,3.74,0,0,1,1.06,1.27,4.13,4.13,0,0,1,.39,1.91,3.19,3.19,0,0,1-.58,1.85,4.15,4.15,0,0,1-1.62,1.37A5.62,5.62,0,0,1,513.4,144.94Z"/><path class="cls-1" d="M530.24,130.61l-5.51,13.83a.41.41,0,0,1-.39.29.49.49,0,0,1-.33-.11.53.53,0,0,1-.13-.26.46.46,0,0,1,0-.22l5.85-14.4a.38.38,0,0,1,.16-.23.49.49,0,0,1,.25,0,.47.47,0,0,1,.28.07.37.37,0,0,1,.16.21l5.85,14.4a.72.72,0,0,1,0,.17.42.42,0,0,1-.13.31.52.52,0,0,1-.33.11.5.5,0,0,1-.27-.08.37.37,0,0,1-.16-.21l-5.68-14Zm-4,9.4.31-.87h7l.22.87Z"/><path class="cls-1" d="M554.34,129.5a.38.38,0,0,1,.3.12.44.44,0,0,1,.11.29v14.34a.46.46,0,0,1-.14.36.49.49,0,0,1-.32.12.41.41,0,0,1-.18,0,.43.43,0,0,1-.17-.13l-10.09-13.79.31-.15v13.75a.35.35,0,0,1-.12.26.44.44,0,0,1-.3.11.41.41,0,0,1-.3-.11.38.38,0,0,1-.11-.26V129.94a.39.39,0,0,1,.13-.34.41.41,0,0,1,.26-.1.57.57,0,0,1,.18,0,.4.4,0,0,1,.15.12l10.05,13.71-.18.43V129.91a.41.41,0,0,1,.13-.29A.42.42,0,0,1,554.34,129.5Z"/><path class="cls-1" d="M581.22,143.86a.42.42,0,0,1,.31.13.43.43,0,0,1,.13.3.43.43,0,0,1-.44.44h-8a.43.43,0,0,1-.44-.44V129.94a.46.46,0,0,1,.13-.31.48.48,0,0,1,.66,0,.46.46,0,0,1,.13.31v14.31l-.4-.39Z"/><path class="cls-1" d="M598.4,129.5a.41.41,0,0,1,.32.13.45.45,0,0,1,.12.31v9.39a5.37,5.37,0,0,1-.76,2.82,5.8,5.8,0,0,1-2,2,5.28,5.28,0,0,1-2.8.76,5.37,5.37,0,0,1-2.82-.76,5.8,5.8,0,0,1-2-2,5.37,5.37,0,0,1-.76-2.82v-9.39a.45.45,0,0,1,.12-.31.42.42,0,0,1,.33-.13.44.44,0,0,1,.33.13.42.42,0,0,1,.13.31v9.39a4.6,4.6,0,0,0,.63,2.38,4.78,4.78,0,0,0,1.71,1.72,4.69,4.69,0,0,0,4.73,0,4.94,4.94,0,0,0,1.71-1.72,4.61,4.61,0,0,0,.64-2.38v-9.39a.45.45,0,0,1,.12-.31A.39.39,0,0,1,598.4,129.5Z"/><path class="cls-1" d="M608,144.27a.63.63,0,0,1-.15.33.46.46,0,0,1-.31.13.43.43,0,0,1-.46-.46V130a.45.45,0,0,1,.14-.33.41.41,0,0,1,.32-.13.44.44,0,0,1,.33.13.49.49,0,0,1,.13.33Z"/><path class="cls-1" d="M620.26,144.94a6.39,6.39,0,0,1-2.91-.56,8.72,8.72,0,0,1-2.35-1.72l-.09-.12a.41.41,0,0,1,0-.21A.49.49,0,0,1,615,142a.45.45,0,0,1,.33-.17.51.51,0,0,1,.37.2,5.86,5.86,0,0,0,4.46,2,5.14,5.14,0,0,0,2-.36,3.17,3.17,0,0,0,1.37-1,2.52,2.52,0,0,0,.5-1.55,2.76,2.76,0,0,0-.61-1.79,4.56,4.56,0,0,0-1.51-1.11c-.62-.29-1.27-.55-1.95-.8s-1.07-.41-1.59-.63A6.45,6.45,0,0,1,617,136a3.32,3.32,0,0,1-1-1.17,3.71,3.71,0,0,1-.37-1.75,3.44,3.44,0,0,1,.57-1.93,4.05,4.05,0,0,1,1.66-1.37,5.92,5.92,0,0,1,2.55-.51,6.74,6.74,0,0,1,2.42.45,4.06,4.06,0,0,1,1.85,1.34.94.94,0,0,1,.21.45.43.43,0,0,1-.16.31.53.53,0,0,1-.36.15.34.34,0,0,1-.28-.13,3.88,3.88,0,0,0-.95-.9,4.24,4.24,0,0,0-1.25-.59,5.09,5.09,0,0,0-1.48-.21,5.18,5.18,0,0,0-1.93.35,3.36,3.36,0,0,0-1.4,1,2.46,2.46,0,0,0-.52,1.58,2.35,2.35,0,0,0,.58,1.64,4.58,4.58,0,0,0,1.47,1.07c.59.28,1.2.54,1.82.77s1.1.39,1.65.62a6.88,6.88,0,0,1,1.48.83,3.71,3.71,0,0,1,1.05,1.27,4.13,4.13,0,0,1,.39,1.91,3.26,3.26,0,0,1-.57,1.85,4.3,4.3,0,0,1-1.62,1.37A5.67,5.67,0,0,1,620.26,144.94Z"/></g></g></svg>